# xmcd
#
# Track frame offsets:
#	150
#	17027
#	31624
#	51804
#	67355
#	86242
#	99880
#	114588
#	131730
#	147032
#	160428
#	192544
#
# Disc length: 2749 seconds
#
# Revision: 11
# Processed by: cddbd v1.5.2PL0 Copyright (c) Steve Scherf et al.
# Submitted via: Jack! The Knife 20 Magnifico
#
DISCID=a80abb0c
DTITLE=Anvil - Juggernaut Of Justice
DYEAR=2011
DGENRE=Heavy Metal
TTITLE0=Juggernaut Of Justice
TTITLE1=When Hell Break Loose
TTITLE2=New Orleans Voo Doo
TTITLE3=On Fire
TTITLE4=Fuken Eh!
TTITLE5=Turn It Up
TTITLE6=This Ride
TTITLE7=Not Afraid
TTITLE8=Conspiracy
TTITLE9=Running
TTITLE10=Paranormal
TTITLE11=Swing Thing
EXTD=Bob Marlette
EXTT0=Kudlow, Reiner, Five
EXTT1=Kudlow, Reiner, Five
EXTT2=Kudlow, Reiner, Five
EXTT3=Kudlow, Reiner, Five
EXTT4=Kudlow, Reiner, Five
EXTT5=Kudlow, Reiner, Five
EXTT6=Kudlow, Reiner, Five
EXTT7=Kudlow, Reiner, Five
EXTT8=Kudlow, Reiner, Five
EXTT9=Kudlow, Reiner, Five
EXTT10=Kudlow, Reiner, Five
EXTT11=Kudlow, Reiner, Five
PLAYORDER=
